<?xml version="1.0" standalone="no"?><!DOCTYPE svg PUBLIC "-//W3C//DTD SVG 1.1//EN" "http://www.w3.org/Graphics/SVG/1.1/DTD/svg11.dtd"><svg t="1598718282212" class="icon" viewBox="0 0 1482 1024" version="1.1" xmlns="http://www.w3.org/2000/svg" p-id="884" width="46.3125" height="32" xmlns:xlink="http://www.w3.org/1999/xlink"><defs><style type="text/css"></style></defs><path d="M453.531 216.326c43.741-21.534 92.088-30.437 139.866-37.892-23.552 24.278-54.766 39.34-78.836 63.204-27.021 25.519-53.73 57.975-54.145 97.006-1.967 17.030 11.44 29.816 22.931 40.221 16.669 15.58 40.375 18.324 61.755 22.931 26.866 5.953 54.663 7.247 82.046 5.227 13.821-1.864 20.137-16.358 25.467-27.435 25.106-62.946 17.6-132.516 33.854-197.376 5.745 18.273 12.682 36.183 19.619 54.041 18.946-0.155 37.943-0.155 56.94 0.052 7.558-17.392 12.682-35.717 18.324-53.782 12.527 52.748 12.371 107.721 21.429 161.192 3.21 21.999 5.383 51.713 30.8 59.269 30.437 6.937 62.272 1.398 93.019-0.932 28.367-0.828 57.613-13.821 74.125-37.373 11.543-15.167 7.194-35.303 3.572-52.385-6.729-24.381-24.536-43.067-40.532-61.755-25.83-28.78-61.081-46.536-89.241-72.728 54.767 6.263 109.066 20.033 158.449 44.982 80.544 37.528 158.604 91.881 200.585 172.477 38.513 73.971 39.186 163.626 13.355 241.737-30.592 90.12-104.77 158.397-186.97 202.345-34.319 15.684-70.657 28.729-108.548 31.421 44.672-38.254 93.744-76.662 116.572-132.929 8.333-22.724 24.122-45.708 17.081-70.968-4.555-24.795-29.919-41.411-54.093-41.67-21.379 0.776-40.221 12.061-57.096 24.069-45.138 34.423-84.841 75.161-125.631 114.45 8.799-27.901 24.329-56.888 15.892-86.808-14.494-28.884-59.89-28.263-75.368-0.776-25.364 37.943-33.595 84.013-42.292 128.012-6.729 30.645-5.693 62.376-13.355 92.917-3.572-55.025-11.802-109.946-26.14-163.263-8.955-27.176-19.308-58.028-45.138-73.609-18.739-11.439-45.863-5.124-55.076 15.58-8.076 29.506 1.295 59.684 11.285 87.48-47.363-44.362-89.292-96.333-146.182-129.151-29.972-18.17-77.181-6.005-87.48 29.454-7.35 47.881 25.364 88.723 52.229 124.647 22.776 32.197 54.197 56.318 81.838 83.909-50.78-8.231-100.94-24.433-144.835-51.713-59.269-38.098-110.827-90.846-139.659-155.758-21.119-47.209-31.058-99.283-30.593-150.841 4.555-43.896 13.407-88.775 37.322-126.667 47.105-80.803 128.012-135.57 212.853-170.821z" p-id="885"></path></svg>